<mxfile host="app.diagrams.net" modified="2024-02-22T17:27:35.245Z" agent="Mozilla/5.0 (Windows NT 10.0; Win64; x64) AppleWebKit/537.36 (KHTML, like Gecko) Chrome/121.0.0.0 Safari/537.36" etag="j-oUGDcC-CHs3jPB9WNl" version="23.1.5" type="google">
  <diagram name="Sayfa -1" id="jR-JxWQsvGY3bTQWOtg5">
    <mxGraphModel grid="1" page="1" gridSize="10" guides="1" tooltips="1" connect="1" arrows="1" fold="1" pageScale="1" pageWidth="827" pageHeight="1169" math="0" shadow="0">
      <root>
        <mxCell id="0" />
        <mxCell id="1" parent="0" />
        <mxCell id="3F5TuEG87TojPj8UUrih-2" value="başla" style="ellipse;whiteSpace=wrap;html=1;" vertex="1" parent="1">
          <mxGeometry x="135" width="120" height="80" as="geometry" />
        </mxCell>
        <mxCell id="3F5TuEG87TojPj8UUrih-5" value="kullanıcıdan&lt;br&gt;parola al" style="rounded=0;whiteSpace=wrap;html=1;" vertex="1" parent="1">
          <mxGeometry x="130" y="160" width="120" height="60" as="geometry" />
        </mxCell>
        <mxCell id="3F5TuEG87TojPj8UUrih-6" value="" style="endArrow=classic;html=1;rounded=0;exitX=0.5;exitY=1;exitDx=0;exitDy=0;" edge="1" parent="1" source="3F5TuEG87TojPj8UUrih-5">
          <mxGeometry width="50" height="50" relative="1" as="geometry">
            <mxPoint x="310" y="250" as="sourcePoint" />
            <mxPoint x="190" y="280" as="targetPoint" />
          </mxGeometry>
        </mxCell>
        <mxCell id="3F5TuEG87TojPj8UUrih-7" value="parola 4&amp;nbsp;&lt;br&gt;basamaklı mı?" style="rhombus;whiteSpace=wrap;html=1;" vertex="1" parent="1">
          <mxGeometry x="135" y="280" width="110" height="110" as="geometry" />
        </mxCell>
        <mxCell id="3F5TuEG87TojPj8UUrih-15" value="" style="endArrow=classic;html=1;rounded=0;exitX=0.5;exitY=1;exitDx=0;exitDy=0;" edge="1" parent="1" source="3F5TuEG87TojPj8UUrih-7">
          <mxGeometry relative="1" as="geometry">
            <mxPoint x="160" y="430" as="sourcePoint" />
            <mxPoint x="190" y="480" as="targetPoint" />
          </mxGeometry>
        </mxCell>
        <mxCell id="3F5TuEG87TojPj8UUrih-16" value="evet" style="edgeLabel;resizable=0;html=1;;align=center;verticalAlign=middle;" connectable="0" vertex="1" parent="3F5TuEG87TojPj8UUrih-15">
          <mxGeometry relative="1" as="geometry" />
        </mxCell>
        <mxCell id="3F5TuEG87TojPj8UUrih-17" value="" style="endArrow=classic;html=1;rounded=0;exitX=1;exitY=0.5;exitDx=0;exitDy=0;" edge="1" parent="1" source="3F5TuEG87TojPj8UUrih-7">
          <mxGeometry relative="1" as="geometry">
            <mxPoint x="210" y="360" as="sourcePoint" />
            <mxPoint x="340" y="335" as="targetPoint" />
          </mxGeometry>
        </mxCell>
        <mxCell id="3F5TuEG87TojPj8UUrih-18" value="hayır" style="edgeLabel;resizable=0;html=1;;align=center;verticalAlign=middle;" connectable="0" vertex="1" parent="3F5TuEG87TojPj8UUrih-17">
          <mxGeometry relative="1" as="geometry" />
        </mxCell>
        <mxCell id="3F5TuEG87TojPj8UUrih-19" value="&quot;Geçersiz, tekrar&lt;br&gt;deneyin&quot;" style="shape=document;whiteSpace=wrap;html=1;boundedLbl=1;" vertex="1" parent="1">
          <mxGeometry x="340" y="300" width="120" height="80" as="geometry" />
        </mxCell>
        <mxCell id="3F5TuEG87TojPj8UUrih-22" value="birler basamağı&lt;br&gt;tek mi?" style="rhombus;whiteSpace=wrap;html=1;" vertex="1" parent="1">
          <mxGeometry x="150" y="480" width="80" height="80" as="geometry" />
        </mxCell>
        <mxCell id="3F5TuEG87TojPj8UUrih-23" value="" style="endArrow=classic;html=1;rounded=0;exitX=1;exitY=0.5;exitDx=0;exitDy=0;" edge="1" parent="1" source="3F5TuEG87TojPj8UUrih-22">
          <mxGeometry relative="1" as="geometry">
            <mxPoint x="270" y="510" as="sourcePoint" />
            <mxPoint x="380" y="520" as="targetPoint" />
          </mxGeometry>
        </mxCell>
        <mxCell id="3F5TuEG87TojPj8UUrih-24" value="hayır" style="edgeLabel;resizable=0;html=1;;align=center;verticalAlign=middle;" connectable="0" vertex="1" parent="3F5TuEG87TojPj8UUrih-23">
          <mxGeometry relative="1" as="geometry" />
        </mxCell>
        <mxCell id="3F5TuEG87TojPj8UUrih-25" value="" style="endArrow=classic;html=1;rounded=0;exitX=0.5;exitY=1;exitDx=0;exitDy=0;" edge="1" parent="1" source="3F5TuEG87TojPj8UUrih-22">
          <mxGeometry relative="1" as="geometry">
            <mxPoint x="160" y="490" as="sourcePoint" />
            <mxPoint x="190" y="600" as="targetPoint" />
          </mxGeometry>
        </mxCell>
        <mxCell id="3F5TuEG87TojPj8UUrih-26" value="evet" style="edgeLabel;resizable=0;html=1;;align=center;verticalAlign=middle;" connectable="0" vertex="1" parent="3F5TuEG87TojPj8UUrih-25">
          <mxGeometry relative="1" as="geometry" />
        </mxCell>
        <mxCell id="3F5TuEG87TojPj8UUrih-27" value="" style="endArrow=classic;html=1;rounded=0;" edge="1" parent="1">
          <mxGeometry width="50" height="50" relative="1" as="geometry">
            <mxPoint x="380" y="520" as="sourcePoint" />
            <mxPoint x="380" y="380" as="targetPoint" />
          </mxGeometry>
        </mxCell>
        <mxCell id="3F5TuEG87TojPj8UUrih-28" value="binler basamağı&lt;br&gt;çift mi?" style="rhombus;whiteSpace=wrap;html=1;" vertex="1" parent="1">
          <mxGeometry x="150" y="600" width="80" height="80" as="geometry" />
        </mxCell>
        <mxCell id="3F5TuEG87TojPj8UUrih-29" value="" style="endArrow=classic;html=1;rounded=0;exitX=1;exitY=0.5;exitDx=0;exitDy=0;" edge="1" parent="1" source="3F5TuEG87TojPj8UUrih-28">
          <mxGeometry relative="1" as="geometry">
            <mxPoint x="130" y="620" as="sourcePoint" />
            <mxPoint x="370" y="640" as="targetPoint" />
          </mxGeometry>
        </mxCell>
        <mxCell id="3F5TuEG87TojPj8UUrih-30" value="hayır" style="edgeLabel;resizable=0;html=1;;align=center;verticalAlign=middle;" connectable="0" vertex="1" parent="3F5TuEG87TojPj8UUrih-29">
          <mxGeometry relative="1" as="geometry" />
        </mxCell>
        <mxCell id="3F5TuEG87TojPj8UUrih-34" value="" style="endArrow=classic;html=1;rounded=0;exitX=0.5;exitY=1;exitDx=0;exitDy=0;" edge="1" parent="1" source="3F5TuEG87TojPj8UUrih-28">
          <mxGeometry relative="1" as="geometry">
            <mxPoint x="130" y="620" as="sourcePoint" />
            <mxPoint x="190" y="720" as="targetPoint" />
          </mxGeometry>
        </mxCell>
        <mxCell id="3F5TuEG87TojPj8UUrih-35" value="evet" style="edgeLabel;resizable=0;html=1;;align=center;verticalAlign=middle;" connectable="0" vertex="1" parent="3F5TuEG87TojPj8UUrih-34">
          <mxGeometry relative="1" as="geometry" />
        </mxCell>
        <mxCell id="3F5TuEG87TojPj8UUrih-36" value="3. deneme&lt;br&gt;mi?" style="rhombus;whiteSpace=wrap;html=1;" vertex="1" parent="1">
          <mxGeometry x="710" y="565" width="80" height="80" as="geometry" />
        </mxCell>
        <mxCell id="3F5TuEG87TojPj8UUrih-42" value="" style="endArrow=classic;html=1;rounded=0;exitX=0.25;exitY=0;exitDx=0;exitDy=0;entryX=1.006;entryY=0.588;entryDx=0;entryDy=0;entryPerimeter=0;" edge="1" parent="1" source="3F5TuEG87TojPj8UUrih-19" target="3F5TuEG87TojPj8UUrih-5">
          <mxGeometry width="50" height="50" relative="1" as="geometry">
            <mxPoint x="310" y="260" as="sourcePoint" />
            <mxPoint x="360" y="210" as="targetPoint" />
            <Array as="points">
              <mxPoint x="370" y="195" />
            </Array>
          </mxGeometry>
        </mxCell>
        <mxCell id="3F5TuEG87TojPj8UUrih-43" value="&quot;Erişim reddedildi.&quot;" style="shape=document;whiteSpace=wrap;html=1;boundedLbl=1;" vertex="1" parent="1">
          <mxGeometry x="700" y="390" width="120" height="80" as="geometry" />
        </mxCell>
        <mxCell id="3F5TuEG87TojPj8UUrih-44" value="bitir" style="ellipse;whiteSpace=wrap;html=1;" vertex="1" parent="1">
          <mxGeometry x="525" y="240" width="120" height="80" as="geometry" />
        </mxCell>
        <mxCell id="3F5TuEG87TojPj8UUrih-46" value="" style="endArrow=classic;html=1;rounded=0;" edge="1" parent="1">
          <mxGeometry width="50" height="50" relative="1" as="geometry">
            <mxPoint x="370" y="640" as="sourcePoint" />
            <mxPoint x="370" y="520" as="targetPoint" />
          </mxGeometry>
        </mxCell>
        <mxCell id="3F5TuEG87TojPj8UUrih-47" value="parola oluşturuldu" style="shape=document;whiteSpace=wrap;html=1;boundedLbl=1;" vertex="1" parent="1">
          <mxGeometry x="130" y="720" width="120" height="80" as="geometry" />
        </mxCell>
        <mxCell id="3F5TuEG87TojPj8UUrih-51" value="girilen parola&lt;br&gt;oluşturulan parola ile aynı mı?" style="rhombus;whiteSpace=wrap;html=1;" vertex="1" parent="1">
          <mxGeometry x="530" y="550" width="110" height="110" as="geometry" />
        </mxCell>
        <mxCell id="3F5TuEG87TojPj8UUrih-53" value="oluşturulan parolayı girin" style="rounded=0;whiteSpace=wrap;html=1;" vertex="1" parent="1">
          <mxGeometry x="530" y="720" width="120" height="60" as="geometry" />
        </mxCell>
        <mxCell id="3F5TuEG87TojPj8UUrih-54" value="" style="endArrow=classic;html=1;rounded=0;exitX=1;exitY=0.5;exitDx=0;exitDy=0;entryX=-0.037;entryY=0.66;entryDx=0;entryDy=0;entryPerimeter=0;" edge="1" parent="1" source="3F5TuEG87TojPj8UUrih-47" target="3F5TuEG87TojPj8UUrih-53">
          <mxGeometry width="50" height="50" relative="1" as="geometry">
            <mxPoint x="450" y="690" as="sourcePoint" />
            <mxPoint x="500" y="640" as="targetPoint" />
          </mxGeometry>
        </mxCell>
        <mxCell id="3F5TuEG87TojPj8UUrih-55" value="" style="endArrow=classic;html=1;rounded=0;exitX=0.457;exitY=-0.06;exitDx=0;exitDy=0;entryX=0.5;entryY=1;entryDx=0;entryDy=0;exitPerimeter=0;" edge="1" parent="1" source="3F5TuEG87TojPj8UUrih-53" target="3F5TuEG87TojPj8UUrih-51">
          <mxGeometry width="50" height="50" relative="1" as="geometry">
            <mxPoint x="450" y="580" as="sourcePoint" />
            <mxPoint x="500" y="530" as="targetPoint" />
          </mxGeometry>
        </mxCell>
        <mxCell id="3F5TuEG87TojPj8UUrih-56" value="&quot;Erişim verildi&quot;" style="shape=document;whiteSpace=wrap;html=1;boundedLbl=1;" vertex="1" parent="1">
          <mxGeometry x="525" y="430" width="120" height="80" as="geometry" />
        </mxCell>
        <mxCell id="3F5TuEG87TojPj8UUrih-57" value="" style="endArrow=classic;html=1;rounded=0;exitX=0.5;exitY=0;exitDx=0;exitDy=0;entryX=0.498;entryY=0.92;entryDx=0;entryDy=0;entryPerimeter=0;" edge="1" parent="1" source="3F5TuEG87TojPj8UUrih-51" target="3F5TuEG87TojPj8UUrih-56">
          <mxGeometry width="50" height="50" relative="1" as="geometry">
            <mxPoint x="530" y="470" as="sourcePoint" />
            <mxPoint x="580" y="420" as="targetPoint" />
          </mxGeometry>
        </mxCell>
        <mxCell id="3F5TuEG87TojPj8UUrih-58" value="" style="endArrow=classic;html=1;rounded=0;exitX=0.5;exitY=0;exitDx=0;exitDy=0;entryX=0.5;entryY=1;entryDx=0;entryDy=0;" edge="1" parent="1" source="3F5TuEG87TojPj8UUrih-56" target="3F5TuEG87TojPj8UUrih-44">
          <mxGeometry width="50" height="50" relative="1" as="geometry">
            <mxPoint x="530" y="370" as="sourcePoint" />
            <mxPoint x="590" y="350" as="targetPoint" />
          </mxGeometry>
        </mxCell>
        <mxCell id="3F5TuEG87TojPj8UUrih-59" value="evet" style="text;html=1;align=center;verticalAlign=middle;resizable=0;points=[];autosize=1;strokeColor=none;fillColor=none;" vertex="1" parent="1">
          <mxGeometry x="580" y="518" width="50" height="30" as="geometry" />
        </mxCell>
        <mxCell id="3F5TuEG87TojPj8UUrih-60" value="" style="endArrow=classic;html=1;rounded=0;exitX=1;exitY=0.5;exitDx=0;exitDy=0;" edge="1" parent="1" source="3F5TuEG87TojPj8UUrih-51">
          <mxGeometry relative="1" as="geometry">
            <mxPoint x="570" y="570" as="sourcePoint" />
            <mxPoint x="710" y="605" as="targetPoint" />
          </mxGeometry>
        </mxCell>
        <mxCell id="3F5TuEG87TojPj8UUrih-61" value="hayır" style="edgeLabel;resizable=0;html=1;;align=center;verticalAlign=middle;" connectable="0" vertex="1" parent="3F5TuEG87TojPj8UUrih-60">
          <mxGeometry relative="1" as="geometry" />
        </mxCell>
        <mxCell id="3F5TuEG87TojPj8UUrih-63" value="" style="endArrow=classic;html=1;rounded=0;exitX=0.5;exitY=0;exitDx=0;exitDy=0;" edge="1" parent="1" source="3F5TuEG87TojPj8UUrih-36">
          <mxGeometry relative="1" as="geometry">
            <mxPoint x="610" y="500" as="sourcePoint" />
            <mxPoint x="750" y="470" as="targetPoint" />
          </mxGeometry>
        </mxCell>
        <mxCell id="3F5TuEG87TojPj8UUrih-64" value="evet" style="edgeLabel;resizable=0;html=1;;align=center;verticalAlign=middle;" connectable="0" vertex="1" parent="3F5TuEG87TojPj8UUrih-63">
          <mxGeometry relative="1" as="geometry" />
        </mxCell>
        <mxCell id="3F5TuEG87TojPj8UUrih-65" value="" style="endArrow=classic;html=1;rounded=0;exitX=0.5;exitY=0;exitDx=0;exitDy=0;entryX=1;entryY=0.5;entryDx=0;entryDy=0;" edge="1" parent="1" source="3F5TuEG87TojPj8UUrih-43" target="3F5TuEG87TojPj8UUrih-44">
          <mxGeometry width="50" height="50" relative="1" as="geometry">
            <mxPoint x="650" y="400" as="sourcePoint" />
            <mxPoint x="700" y="350" as="targetPoint" />
            <Array as="points">
              <mxPoint x="760" y="280" />
            </Array>
          </mxGeometry>
        </mxCell>
        <mxCell id="3F5TuEG87TojPj8UUrih-66" value="&quot;Geçersiz, tekrar &lt;br&gt;deneyin&quot;" style="shape=document;whiteSpace=wrap;html=1;boundedLbl=1;" vertex="1" parent="1">
          <mxGeometry x="690" y="710" width="120" height="80" as="geometry" />
        </mxCell>
        <mxCell id="3F5TuEG87TojPj8UUrih-68" value="" style="endArrow=classic;html=1;rounded=0;exitX=0;exitY=0.5;exitDx=0;exitDy=0;entryX=1;entryY=0.5;entryDx=0;entryDy=0;" edge="1" parent="1" source="3F5TuEG87TojPj8UUrih-66" target="3F5TuEG87TojPj8UUrih-53">
          <mxGeometry width="50" height="50" relative="1" as="geometry">
            <mxPoint x="660" y="700" as="sourcePoint" />
            <mxPoint x="710" y="650" as="targetPoint" />
          </mxGeometry>
        </mxCell>
        <mxCell id="3F5TuEG87TojPj8UUrih-71" value="" style="endArrow=classic;html=1;rounded=0;exitX=0.5;exitY=1;exitDx=0;exitDy=0;entryX=0.5;entryY=0;entryDx=0;entryDy=0;" edge="1" parent="1" source="3F5TuEG87TojPj8UUrih-36" target="3F5TuEG87TojPj8UUrih-66">
          <mxGeometry relative="1" as="geometry">
            <mxPoint x="640" y="670" as="sourcePoint" />
            <mxPoint x="740" y="670" as="targetPoint" />
          </mxGeometry>
        </mxCell>
        <mxCell id="3F5TuEG87TojPj8UUrih-72" value="hayır" style="edgeLabel;resizable=0;html=1;;align=center;verticalAlign=middle;" connectable="0" vertex="1" parent="3F5TuEG87TojPj8UUrih-71">
          <mxGeometry relative="1" as="geometry" />
        </mxCell>
        <mxCell id="3F5TuEG87TojPj8UUrih-74" value="" style="endArrow=classic;html=1;rounded=0;exitX=0.5;exitY=1;exitDx=0;exitDy=0;entryX=0.5;entryY=0;entryDx=0;entryDy=0;entryPerimeter=0;" edge="1" parent="1" source="3F5TuEG87TojPj8UUrih-2" target="3F5TuEG87TojPj8UUrih-5">
          <mxGeometry width="50" height="50" relative="1" as="geometry">
            <mxPoint x="310" y="170" as="sourcePoint" />
            <mxPoint x="360" y="120" as="targetPoint" />
          </mxGeometry>
        </mxCell>
      </root>
    </mxGraphModel>
  </diagram>
</mxfile>
